<svg width="43" height="45" viewBox="0 0 43 45" fill="none" xmlns="http://www.w3.org/2000/svg">
<path d="M12.5441 2C13.4055 2 14.1991 2.4917 14.6172 3.28441L17.5174 8.78365C17.8971 9.50369 17.915 10.3746 17.5651 11.1112L14.7711 16.9934C14.7711 16.9934 15.5808 21.3753 18.9694 24.9423C22.358 28.5093 26.5069 29.3469 26.5069 29.3469L32.0941 26.4063C32.7943 26.0377 33.6223 26.0568 34.3066 26.4572L39.5457 29.5233C40.298 29.9637 40.7646 30.7985 40.7646 31.7046V38.0358C40.7646 41.26 37.9195 43.5887 35.0173 42.5578C29.0567 40.4408 19.8042 36.4098 13.9398 30.2366C8.07525 24.0635 4.24585 14.3241 2.2346 8.04976C1.25536 4.99479 3.46761 2 6.53054 2H12.5441Z" stroke="#CCF381" stroke-width="3" stroke-linejoin="round"/>
</svg>
